<svg width="163" height="33" viewBox="0 0 163 33" fill="none" xmlns="http://www.w3.org/2000/svg">
<path d="M48.992 26.904L45.934 23.846C45.186 24.0513 44.4233 24.154 43.646 24.154C42.2233 24.154 40.9253 23.824 39.752 23.164C38.5787 22.4893 37.6473 21.558 36.958 20.37C36.2833 19.1673 35.946 17.818 35.946 16.322C35.946 14.826 36.2833 13.484 36.958 12.296C37.6473 11.0933 38.5787 10.162 39.752 9.502C40.9253 8.82733 42.2233 8.49 43.646 8.49C45.0833 8.49 46.3887 8.82733 47.562 9.502C48.7353 10.162 49.6593 11.086 50.334 12.274C51.0087 13.462 51.346 14.8113 51.346 16.322C51.346 17.7887 51.0233 19.1087 50.378 20.282C49.7327 21.4553 48.8453 22.3793 47.716 23.054L51.588 26.904H48.992ZM37.992 16.322C37.992 17.5393 38.234 18.61 38.718 19.534C39.2167 20.458 39.8913 21.1693 40.742 21.668C41.6073 22.1667 42.5753 22.416 43.646 22.416C44.7167 22.416 45.6773 22.1667 46.528 21.668C47.3933 21.1693 48.068 20.458 48.552 19.534C49.0507 18.61 49.3 17.5393 49.3 16.322C49.3 15.09 49.0507 14.0193 48.552 13.11C48.068 12.186 47.4007 11.4747 46.55 10.976C45.6993 10.4773 44.7313 10.228 43.646 10.228C42.5607 10.228 41.5927 10.4773 40.742 10.976C39.8913 11.4747 39.2167 12.186 38.718 13.11C38.234 14.0193 37.992 15.09 37.992 16.322ZM64.7239 11.944V24H62.7219V22.218C62.3406 22.834 61.8052 23.318 61.1159 23.67C60.4412 24.0073 59.6932 24.176 58.8719 24.176C57.9332 24.176 57.0899 23.9853 56.3419 23.604C55.5939 23.208 54.9999 22.6213 54.5599 21.844C54.1346 21.0667 53.9219 20.1207 53.9219 19.006V11.944H55.9019V18.742C55.9019 19.93 56.2026 20.8467 56.8039 21.492C57.4052 22.1227 58.2266 22.438 59.2679 22.438C60.3386 22.438 61.1819 22.108 61.7979 21.448C62.4139 20.788 62.7219 19.8273 62.7219 18.566V11.944H64.7239ZM69.1382 9.986C68.7568 9.986 68.4342 9.854 68.1702 9.59C67.9062 9.326 67.7742 9.00333 67.7742 8.622C67.7742 8.24067 67.9062 7.918 68.1702 7.654C68.4342 7.39 68.7568 7.258 69.1382 7.258C69.5048 7.258 69.8128 7.39 70.0622 7.654C70.3262 7.918 70.4582 8.24067 70.4582 8.622C70.4582 9.00333 70.3262 9.326 70.0622 9.59C69.8128 9.854 69.5048 9.986 69.1382 9.986ZM70.1062 11.944V24H68.1042V11.944H70.1062ZM75.0142 22.35H80.9322V24H72.7262V22.35L78.5782 13.572H72.7702V11.944H80.8882V13.572L75.0142 22.35Z" fill="#556272"/>
<path d="M88.3919 24.154C87.3799 24.154 86.4706 23.978 85.6639 23.626C84.8719 23.2593 84.2486 22.7607 83.7939 22.13C83.3393 21.4847 83.1046 20.744 83.0899 19.908H85.2239C85.2973 20.6267 85.5906 21.2353 86.1039 21.734C86.6319 22.218 87.3946 22.46 88.3919 22.46C89.3453 22.46 90.0933 22.2253 90.6359 21.756C91.1933 21.272 91.4719 20.656 91.4719 19.908C91.4719 19.3213 91.3106 18.8447 90.9879 18.478C90.6653 18.1113 90.2619 17.8327 89.7779 17.642C89.2939 17.4513 88.6413 17.246 87.8199 17.026C86.8079 16.762 85.9939 16.498 85.3779 16.234C84.7766 15.97 84.2559 15.5593 83.8159 15.002C83.3906 14.43 83.1779 13.6673 83.1779 12.714C83.1779 11.878 83.3906 11.1373 83.8159 10.492C84.2413 9.84667 84.8353 9.348 85.5979 8.996C86.3753 8.644 87.2626 8.468 88.2599 8.468C89.6973 8.468 90.8706 8.82733 91.7799 9.546C92.7039 10.2647 93.2246 11.218 93.3419 12.406H91.1419C91.0686 11.8193 90.7606 11.306 90.2179 10.866C89.6753 10.4113 88.9566 10.184 88.0619 10.184C87.2259 10.184 86.5439 10.404 86.0159 10.844C85.4879 11.2693 85.2239 11.8707 85.2239 12.648C85.2239 13.2053 85.3779 13.66 85.6859 14.012C86.0086 14.364 86.3973 14.6353 86.8519 14.826C87.3213 15.002 87.9739 15.2073 88.8099 15.442C89.8219 15.7207 90.6359 15.9993 91.2519 16.278C91.8679 16.542 92.3959 16.96 92.8359 17.532C93.2759 18.0893 93.4959 18.852 93.4959 19.82C93.4959 20.568 93.2979 21.272 92.9019 21.932C92.5059 22.592 91.9193 23.1273 91.1419 23.538C90.3646 23.9487 89.4479 24.154 88.3919 24.154ZM106.826 11.944L99.566 29.676H97.498L99.874 23.868L95.012 11.944H97.234L101.018 21.712L104.758 11.944H106.826ZM113.107 24.198C112.183 24.198 111.354 24.044 110.621 23.736C109.887 23.4133 109.308 22.9733 108.883 22.416C108.457 21.844 108.223 21.1913 108.179 20.458H110.247C110.305 21.0593 110.584 21.5507 111.083 21.932C111.596 22.3133 112.263 22.504 113.085 22.504C113.847 22.504 114.449 22.3353 114.889 21.998C115.329 21.6607 115.549 21.2353 115.549 20.722C115.549 20.194 115.314 19.8053 114.845 19.556C114.375 19.292 113.649 19.0353 112.667 18.786C111.772 18.5513 111.039 18.3167 110.467 18.082C109.909 17.8327 109.425 17.4733 109.015 17.004C108.619 16.52 108.421 15.8893 108.421 15.112C108.421 14.496 108.604 13.9313 108.971 13.418C109.337 12.9047 109.858 12.5013 110.533 12.208C111.207 11.9 111.977 11.746 112.843 11.746C114.177 11.746 115.255 12.0833 116.077 12.758C116.898 13.4327 117.338 14.3567 117.397 15.53H115.395C115.351 14.8993 115.094 14.3933 114.625 14.012C114.17 13.6307 113.554 13.44 112.777 13.44C112.058 13.44 111.486 13.594 111.061 13.902C110.635 14.21 110.423 14.6133 110.423 15.112C110.423 15.508 110.547 15.838 110.797 16.102C111.061 16.3513 111.383 16.5567 111.765 16.718C112.161 16.8647 112.703 17.0333 113.393 17.224C114.258 17.4587 114.962 17.6933 115.505 17.928C116.047 18.148 116.509 18.4853 116.891 18.94C117.287 19.3947 117.492 19.9887 117.507 20.722C117.507 21.382 117.323 21.976 116.957 22.504C116.59 23.032 116.069 23.45 115.395 23.758C114.735 24.0513 113.972 24.198 113.107 24.198ZM122.775 13.594V20.7C122.775 21.2867 122.899 21.7047 123.149 21.954C123.398 22.1887 123.831 22.306 124.447 22.306H125.921V24H124.117C123.002 24 122.166 23.7433 121.609 23.23C121.051 22.7167 120.773 21.8733 120.773 20.7V13.594H119.211V11.944H120.773V8.908H122.775V11.944H125.921V13.594H122.775ZM139.346 17.51C139.346 17.8913 139.324 18.2947 139.28 18.72H129.644C129.718 19.908 130.121 20.8393 130.854 21.514C131.602 22.174 132.504 22.504 133.56 22.504C134.426 22.504 135.144 22.306 135.716 21.91C136.303 21.4993 136.714 20.9567 136.948 20.282H139.104C138.782 21.4407 138.136 22.3867 137.168 23.12C136.2 23.8387 134.998 24.198 133.56 24.198C132.416 24.198 131.39 23.9413 130.48 23.428C129.586 22.9147 128.882 22.1887 128.368 21.25C127.855 20.2967 127.598 19.1967 127.598 17.95C127.598 16.7033 127.848 15.6107 128.346 14.672C128.845 13.7333 129.542 13.0147 130.436 12.516C131.346 12.0027 132.387 11.746 133.56 11.746C134.704 11.746 135.716 11.9953 136.596 12.494C137.476 12.9927 138.151 13.682 138.62 14.562C139.104 15.4273 139.346 16.41 139.346 17.51ZM137.278 17.092C137.278 16.3293 137.11 15.6767 136.772 15.134C136.435 14.5767 135.973 14.1587 135.386 13.88C134.814 13.5867 134.176 13.44 133.472 13.44C132.46 13.44 131.595 13.7627 130.876 14.408C130.172 15.0533 129.769 15.948 129.666 17.092H137.278ZM156.487 11.724C157.426 11.724 158.262 11.922 158.995 12.318C159.728 12.6993 160.308 13.2787 160.733 14.056C161.158 14.8333 161.371 15.7793 161.371 16.894V24H159.391V17.18C159.391 15.9773 159.09 15.0607 158.489 14.43C157.902 13.7847 157.103 13.462 156.091 13.462C155.05 13.462 154.221 13.7993 153.605 14.474C152.989 15.134 152.681 16.0947 152.681 17.356V24H150.701V17.18C150.701 15.9773 150.4 15.0607 149.799 14.43C149.212 13.7847 148.413 13.462 147.401 13.462C146.36 13.462 145.531 13.7993 144.915 14.474C144.299 15.134 143.991 16.0947 143.991 17.356V24H141.989V11.944H143.991V13.682C144.387 13.0513 144.915 12.5673 145.575 12.23C146.25 11.8927 146.99 11.724 147.797 11.724C148.809 11.724 149.704 11.9513 150.481 12.406C151.258 12.8607 151.838 13.528 152.219 14.408C152.556 13.5573 153.114 12.8973 153.891 12.428C154.668 11.9587 155.534 11.724 156.487 11.724Z" fill="#C64D56"/>
<path d="M4.46429 6C3.28028 6 2.14478 6.45028 1.30756 7.25178C0.470343 8.05328 0 9.14034 0 10.2738V23.7306C0 24.2918 0.115472 24.8476 0.339824 25.3661C0.564175 25.8846 0.893012 26.3558 1.30756 26.7527C2.14478 27.5542 3.28028 28.0044 4.46429 28.0044H5.35714V31.3243C5.35708 31.6462 5.45384 31.9612 5.63585 32.2318C5.81787 32.5023 6.07743 32.717 6.38351 32.8501C6.68958 32.9831 7.02922 33.029 7.3618 32.9822C7.69438 32.9353 8.00584 32.7978 8.25893 32.586L13.7286 28.0044H20.5357C21.122 28.0044 21.7025 27.8939 22.2441 27.6791C22.7858 27.4643 23.2779 27.1495 23.6924 26.7527C24.107 26.3558 24.4358 25.8846 24.6602 25.3661C24.8845 24.8476 25 24.2918 25 23.7306V10.2738C25 9.14034 24.5297 8.05328 23.6924 7.25178C22.8552 6.45028 21.7197 6 20.5357 6H4.46429Z" fill="#C64D56"/>
<path d="M13.5147 9C11.0197 9 9.40368 10.0858 8.13494 12.0223C7.90478 12.3736 7.97574 12.8553 8.29679 13.1139L9.64521 14.1999C9.96946 14.4611 10.4308 14.4 10.6846 14.0622C11.4676 13.0202 12.0485 12.4203 13.2715 12.4203C14.2331 12.4203 15.4226 13.0777 15.4226 14.0682C15.4226 14.817 14.8406 15.2016 13.8911 15.767C12.7839 16.4264 11.3186 17.2471 11.3186 19.3V19.625C11.3186 20.0651 11.6545 20.4219 12.0688 20.4219H14.3341C14.7485 20.4219 15.0843 20.0651 15.0843 19.625V19.4333C15.0843 18.0102 19 17.951 19 14.1C19 11.1999 16.168 9 13.5147 9ZM13.2015 21.4C12.0075 21.4 11.0362 22.4318 11.0362 23.7C11.0362 24.9682 12.0075 26 13.2015 26C14.3954 26 15.3668 24.9682 15.3668 23.7C15.3668 22.4318 14.3954 21.4 13.2015 21.4Z" fill="white"/>
</svg>
